<?xml version="1.0" standalone="no"?>
<!DOCTYPE svg PUBLIC "-//W3C//DTD SVG 20010904//EN"
 "http://www.w3.org/TR/2001/REC-SVG-20010904/DTD/svg10.dtd">
<svg version="1.0" xmlns="http://www.w3.org/2000/svg"
 width="128.000000pt" height="128.000000pt" viewBox="0 0 128.000000 128.000000"
 preserveAspectRatio="xMidYMid meet">
<metadata>
Created by potrace 1.11, written by Peter Selinger 2001-2013
</metadata>
<g transform="translate(0.000000,128.000000) scale(0.100000,-0.100000)"
fill="#000000" stroke="none">
<path d="M131 1000 c-117 -116 -139 -149 -127 -187 7 -20 5 -18 380 -417 66
-71 141 -151 166 -178 34 -36 54 -50 83 -55 42 -6 17 -29 262 232 187 199 275
292 305 324 110 114 109 119 -35 264 -63 64 -124 121 -134 127 -13 6 -156 10
-399 10 l-380 0 -121 -120z m291 9 c-34 -33 -49 -31 -86 10 l-19 21 68 0 69 0
-32 -31z m264 -4 c-22 -19 -42 -35 -46 -35 -4 0 -24 16 -46 35 l-39 34 85 0
85 0 -39 -34z m258 14 c-38 -42 -54 -44 -86 -10 l-29 31 67 0 67 0 -19 -21z
m-423 -6 c11 -10 35 -31 52 -46 l32 -28 -39 -34 c-22 -19 -42 -35 -45 -35 -4
0 -28 18 -54 39 l-47 39 37 41 c20 23 38 41 40 41 1 0 12 -8 24 -17z m293
-100 c-25 -24 -49 -43 -53 -43 -10 0 -81 60 -81 69 0 4 23 26 51 49 l52 42 39
-38 39 -37 -47 -42z m-497 69 l43 -37 -54 -52 -54 -53 -82 0 c-76 0 -81 1 -69
17 20 25 163 163 169 163 3 0 24 -17 47 -38z m788 -52 l90 -90 -85 0 -84 0
-48 47 c-26 26 -48 52 -48 57 0 10 70 75 80 76 3 0 46 -40 95 -90z m-665 -50
l45 -39 -89 -1 -88 0 38 40 c22 21 41 39 44 39 3 0 25 -17 50 -39z m503 -9
l27 -31 -87 0 -88 1 45 38 c49 43 58 43 103 -8z m-257 4 l39 -34 -85 0 -85 0
40 34 c22 19 43 35 46 35 3 0 23 -16 45 -35z m-313 -269 c64 -107 117 -197
117 -199 0 -5 -99 97 -170 174 -8 9 -44 47 -80 85 -36 38 -78 84 -94 102 l-30
32 70 0 70 0 117 -194z m127 190 c0 -2 9 -48 20 -101 11 -54 22 -107 24 -119
36 -177 47 -239 44 -242 -4 -3 -278 450 -278 460 0 3 43 6 95 6 52 0 95 -2 95
-4z m236 -13 c-2 -10 -24 -115 -47 -233 -39 -201 -58 -268 -60 -209 0 13 -2
31 -4 39 -2 8 -20 98 -40 200 -20 102 -38 193 -41 203 -5 15 4 17 96 17 92 0
101 -2 96 -17z m234 11 c0 -10 -274 -463 -278 -460 -3 3 21 134 42 236 3 14
10 50 16 80 6 30 16 76 21 103 l11 47 94 0 c52 0 94 -3 94 -6z m159 -31 c-18
-21 -63 -69 -99 -107 -36 -38 -74 -78 -85 -90 -68 -74 -155 -163 -155 -159 0
3 53 92 117 199 l117 194 70 0 70 0 -35 -37z"/>
</g>
</svg>
